<svg width="89" height="16" viewBox="0 0 89 16" fill="none" xmlns="http://www.w3.org/2000/svg">
<path d="M0.54 15H6.82C9.72 15 11.62 13.48 11.62 11.16V10.98C11.62 9.44 10.78 8.16 9.22 7.54C10.44 6.8 10.98 5.86 10.98 4.62V4.48C10.98 2.44 9.06 0.999999 6.26 0.999999H0.54V15ZM3.52 6.8V3.62H6.16C7.28 3.62 7.94 4.2 7.94 5.08V5.22C7.94 6.16 7.22 6.8 6.12 6.8H3.52ZM3.52 12.36V9.02H6.58C7.76 9.02 8.54 9.68 8.54 10.66V10.78C8.54 11.74 7.78 12.36 6.62 12.36H3.52ZM13.9384 15H22.9984V12.28H17.0584V9.26H22.3984V6.68H17.0584V3.72H22.7984V0.999999H13.9384V15ZM28.1991 15H31.3391V3.72H35.0991V0.999999H24.3991V3.72H28.1991V15ZM36.1244 15H46.8444V12.28H40.0844V12.1L46.6844 3.36V0.999999H36.5444V3.72H42.7844V3.82L36.1244 12.66V15ZM47.5534 8.08C47.5534 12.14 50.4734 15.26 54.5134 15.26H54.7134C58.7734 15.26 61.6934 12.2 61.6934 8.1V7.9C61.6934 3.8 58.7734 0.719999 54.7134 0.719999H54.5134C50.4334 0.719999 47.5534 3.8 47.5534 7.92V8.08ZM50.7934 8.08V7.92C50.7934 5.26 52.4134 3.46 54.5334 3.46H54.6934C56.8534 3.46 58.4534 5.26 58.4534 7.92V8.08C58.4534 10.74 56.8534 12.54 54.7134 12.54H54.5534C52.4134 12.54 50.7934 10.74 50.7934 8.08ZM64.0166 15H67.0166V5.06H67.1566L72.8566 15H75.9766V0.999999H72.9566V10.26H72.8166L67.4966 0.999999H64.0166V15ZM79.0361 15H88.0961V12.28H82.1561V9.26H87.4961V6.68H82.1561V3.72H87.8961V0.999999H79.0361V15Z" fill="#E59E25"/>
</svg>
